<?xml version="1.0" encoding="UTF-8"?><svg id="Layer_1" xmlns="http://www.w3.org/2000/svg" width="892.57" height="339.13" viewBox="0 0 892.57 339.13"><path d="m438.82,339.11c6.66,0,13.33,0,19.99,0,135.47,0,270.95.02,406.42.02,9.85,0,9.77-.02,11.58-9.92,4.96-27.2,9.93-54.41,15.03-81.58,1.37-7.29,1.47-7.43-5.8-7.43-43.47-.01-86.94,0-130.41,0-108.29,0-216.59,0-324.88,0-109.46,0-218.92,0-328.38,0-24.5,0-48.99.15-73.49-.12-5.26-.06-7.19,1.73-8.08,6.78-5,28.21-10.28,56.37-15.53,84.54-1.39,7.47-1.28,7.74,6.15,7.74,39.49,0,78.98,0,118.47-.01,52.49,0,104.98,0,157.48,0,50.49,0,100.98,0,151.47,0Zm-274.69-50.62c.65.31,1.3.54,1.86.91,8.39,5.64,10.57,10.93,8.62,20.83-1.47,7.46-7.65,13.69-16.54,14.48-10.25.91-20.63.55-30.94.41-1.06-.01-2.98-2.22-2.99-3.43-.18-21.49-.12-42.98-.15-64.47,0-2.73,1.27-3.95,3.97-3.87,9.48.26,18.98.16,28.43.84,8.1.58,14.26,4.44,16.47,12.9,2.09,8.02-.24,14.41-7.1,19.13-.49.34-.75,1.02-1.61,2.27Zm640.74,15.25c1.19-1.69,2.48-3.33,3.57-5.09,8.33-13.44,16.73-26.84,24.85-40.41,2.14-3.58,4.65-5.01,8.81-5.03,4.51-.02,6.16,1.42,6.1,6.04-.21,16.15-.07,32.3-.07,48.45,0,3.83-.26,7.68.05,11.48.4,4.84-1.51,6.42-6.29,6.28-3.98-.11-5.19-1.55-5.14-5.35.15-12.98.07-25.97.03-38.96,0-1.89-.29-3.78-.44-5.67-.41-.12-.82-.25-1.24-.37-1.19,1.65-2.47,3.23-3.54,4.95-8.52,13.71-16.99,27.45-25.5,41.17-2.27,3.65-9.01,5.82-12.49,3.66-1.06-.66-1.72-2.75-1.72-4.19-.11-20.98-.01-41.96-.12-62.93-.02-4.59,2.84-4.37,5.99-4.46,3.32-.1,5.39.61,5.35,4.59-.13,13.32-.07,26.64-.02,39.96,0,1.86.37,3.71.56,5.57.41.1.83.21,1.24.31Zm-498.58-12.66c-.7,4.32-.96,9.72-2.52,14.73-4.18,13.48-14.71,21.19-27.66,21.01-13.69-.19-23.97-7.66-27.91-21.4-3.31-11.56-3.47-23.39,1.05-34.77,5.12-12.9,16.5-20.12,28.71-18.75,14.49,1.62,24.56,10.99,26.89,25.28.69,4.25.9,8.58,1.44,13.9Zm200.79-1.19c0,9.99-.17,19.99.08,29.98.12,4.57-1.84,5.61-5.98,5.6-4.07,0-5.63-1.34-5.59-5.49.15-16.82.09-33.65.08-50.47,0-6.92-.21-7.12-6.9-7.14-7-.02-14,.18-20.99-.06-4.35-.15-5.88,1.54-5.84,5.84.15,16.99.09,33.98.08,50.97,0,5.63-4.56,8.49-9.51,5.77-.99-.54-1.75-2.41-1.75-3.68-.1-21.15-.04-42.31-.09-63.46,0-3.23,1.45-4.43,4.55-4.42,15.82.06,31.65.08,47.47,0,3.7-.02,4.42,1.98,4.4,5.08-.06,10.49-.02,20.99-.02,31.48Zm147.33,35.43c-3.38,0-6.07.35-8.6-.13-1.46-.28-3.21-1.62-3.89-2.96-1.41-2.8-2.38-5.87-3.18-8.92-.94-3.61-2.84-5.24-6.73-5.1-6.65.24-13.32.18-19.98.04-3.15-.06-5.04,1.09-5.84,4.17-.42,1.6-1.15,3.12-1.68,4.7-3.03,9.01-3.98,9.55-14.36,7.44,1.66-4.54,3.24-9.01,4.92-13.44,6.66-17.6,13.4-35.16,19.96-52.79,1.25-3.35,2.86-5.18,6.79-5.11,3.73.07,6.12.78,7.59,4.71,7.85,21.06,15.97,42.02,23.96,63.02.4,1.05.52,2.2,1.02,4.37Zm-604.79-.98c2.91-7.84,5.64-15.28,8.44-22.69,5.41-14.32,10.93-28.59,16.22-42.94,1.37-3.72,3.16-5.59,7.52-5.53,4.33.06,6.07,1.94,7.46,5.67,7.3,19.64,14.82,39.2,22.23,58.79.8,2.13,1.39,4.34,2.07,6.49-8.4,3.03-10.96,1.88-13.77-5.83-3.98-10.93-1.21-9.98-14.12-10-4.82,0-9.65.09-14.47-.04-2.95-.08-4.66,1.1-5.46,3.95-.58,2.07-1.51,4.05-2.24,6.08-2.84,7.88-4.07,8.49-13.89,6.06Zm390.08-.19c-8.35,2.98-10.99,1.81-13.54-5.47-4.13-11.77-1.35-10.28-14.8-10.39-4.66-.04-9.32.08-13.98-.04-2.92-.08-4.73,1-5.51,3.89-.52,1.92-1.31,3.77-1.96,5.66-2.86,8.37-3.82,8.88-13.48,6.79.16-1.05.13-2.19.51-3.19,7.9-21.03,15.92-42.01,23.73-63.07,1.37-3.69,3.4-5.1,7.36-5.14,4.03-.03,5.84,1.54,7.21,5.22,7.49,20.11,15.25,40.12,22.88,60.18.69,1.81,1.08,3.73,1.6,5.55Zm-82.86-36.72c7.17,3.75,11.38,7.91,12.1,14.75.96,9.08-2.35,16.29-10.56,20.2-11.33,5.4-23.04,5.91-33.67-1.4-3.63-2.5-5.78-7.38-8.11-11.45-1.21-2.11.06-3.85,2.74-3.96,3.96-.15,7.54-.7,9.68,4.46,2.65,6.4,11.13,8.7,19.18,6.31,6.15-1.83,9.65-6.53,9.33-12.54-.32-5.99-3.65-10-9.59-11.08-2.59-.47-5.3-.54-7.95-.44-3.39.12-5.31-.71-5.23-4.67.08-3.7,1.91-4.41,5.06-4.4,2.81.01,5.68-.14,8.42-.72,4.85-1.03,7.97-4.84,8.2-9.43.27-5.16-2.28-8.99-7.16-10.79-8.36-3.08-15.34-.82-20.19,6.52-1.45,2.19-9.29,3.5-10.8,1.59-.65-.82-.67-2.52-.36-3.66,1.55-5.69,5.44-9.54,10.64-11.87,9.1-4.08,18.36-3.88,27.67-.39,13.67,5.11,15.82,23.5,4.4,30.36-.97.58-1.87,1.28-3.8,2.61Zm304.14,1.67c-.53-9.21.97-18.02,6.39-25.67,6.49-9.16,15.83-12.4,26.64-11.29,10.74,1.11,18.99,6.09,22.4,16.97.61,1.95,2.97,4.87-.92,6.28-4.01,1.45-9.04,0-9.66-3.21-2.09-10.84-14.11-13.06-22.45-9.72-6.54,2.62-8.93,8.42-9.94,14.59-1.59,9.73-1.97,19.57,1.18,29.15,2.55,7.75,7.07,11.17,14.56,11.38,9.31.26,13.1-2.18,16.41-10.55,1.29-3.26,8.27-5.42,10.84-3.09.78.71.84,2.73.56,4-2.02,8.93-7.76,14.6-16.32,17.25-20.77,6.44-38-5.83-39.65-28.12-.2-2.65-.03-5.32-.03-7.99Zm-82.39.38c0,10.15-.17,20.31.08,30.45.12,4.65-1.99,5.47-6.05,5.53-4.31.07-5.99-1.27-5.77-5.72.31-6.14-.01-12.31.1-18.47.06-3.48-1.19-4.53-4.79-4.29-6.93.47-13.95.9-20.83.27-10.75-.97-17.28-7.88-18.01-18.61-.49-7.12-.14-14.3-.23-21.46-.05-4.53,3.23-3.78,5.97-3.84,2.89-.07,5.83-.31,5.75,4.09-.12,6.32-.15,12.65.08,18.97.33,8.86,3.69,12.36,12.57,12.68,4.79.17,9.61-.51,14.41-.88,3.63-.28,5.17-2.23,5.1-5.95-.16-7.65.17-15.32-.13-22.96-.18-4.57,1.41-6.06,5.99-6.1,4.84-.04,5.91,2.03,5.82,6.32-.2,9.98-.06,19.97-.06,29.95Zm168.2,4.4c0-8.65-.12-17.3.05-25.95.08-4.01-1.34-5.82-5.5-5.63-4.48.21-8.98-.02-13.47.07-3.18.06-3.91-1.69-3.89-4.44.03-2.64.51-4.59,3.76-4.58,16.47.03,32.94.03,49.4,0,3.24,0,3.78,1.9,3.77,4.56,0,2.75-.81,4.5-3.94,4.44-3.49-.07-6.99,0-10.48,0q-8.39.02-8.39,8.21c0,16.3-.13,32.61.07,48.9.06,4.59-1.53,6.07-6.07,6-4.23-.06-5.45-1.67-5.36-5.65.2-8.65.06-17.3.06-25.95h-.02Zm-542-.05c-.01-8.65-.14-17.31.04-25.96.08-4.09-1.49-5.75-5.58-5.55-4.15.21-8.32-.1-12.48.07-3.41.14-4.8-1.15-4.75-4.63.05-3.2,1.28-4.45,4.47-4.44,15.98.07,31.95.09,47.93,0,3.52-.02,4.63,1.51,4.62,4.83-.01,3.36-1.63,4.33-4.65,4.25-3.82-.11-7.66-.04-11.48-.02-6.6.04-6.82.21-6.84,6.67-.04,16.64,0,33.29-.04,49.93-.01,5.97-3.24,8.32-8.88,6.04-1.22-.49-2.22-3.07-2.26-4.72-.22-8.82-.1-17.64-.1-26.46Z" style="fill:#114d6f;"/><path d="m.07,116.13c0,17.82.03,35.64-.04,53.46-.01,3.23.64,5.62,3.77,7.42,31.48,18.08,62.86,36.34,94.38,54.33,1.74.99,4.92.82,6.82-.09,5.53-2.66,10.76-5.94,16.08-9.01,25.67-14.82,51.29-29.72,77.03-44.41,3.42-1.95,5.29-3.99,5.13-8.12-.28-6.96-.1-13.93-.1-20.9,0-28.62-.04-57.24.06-85.87.01-3.49-.85-5.87-4.09-7.73-31.2-17.89-62.33-35.9-93.44-53.96-2.94-1.7-5.31-1.66-8.3.08C66.72,19.16,36.02,36.93,5.22,54.5,1.32,56.72-.04,59.35,0,63.66c.16,17.49.07,34.98.07,52.47Zm153.34-35.48c-1.24,1.82-2.26,3.67-3.61,5.24-2.64,3.1-5.27,6.17-3.85,10.66,1.49,4.71,5.47,5.92,9.71,6.66,8.89,1.55,9.03,1.67,9.73,10.7.13,1.65.12,3.33,0,4.99-.7,9-.91,9.2-9.92,10.4-9.6,1.28-12.37,7.6-6.79,15.52.96,1.36,2.66,2.6,2.83,4.03.29,2.52.57,5.82-.76,7.58-2.67,3.52-6.43,6.21-9.72,9.27-2.37,2.2-4.74,2.07-7.14.09-.51-.42-.97-.92-1.51-1.3-3.71-2.63-7.49-5.43-12.36-3.54-4.98,1.93-5.84,6.61-6.21,11.12-.42,5.11-2.86,7.56-7.92,7.61-1.49.01-3.01.45-4.48.3-8.43-.87-11.81.97-13.02-10.69-.94-9.08-8.65-11.6-16.05-5.98q-6.96,5.29-13.54-.62c-.37-.33-.74-.67-1.11-1.01q-8.51-7.83-2.7-17.62c4.58-7.72,2.07-13.12-6.86-14.77-9.78-1.8-10.19-2.28-10.21-12.2,0-1.83.06-3.66.08-5.5.06-4.93,2.28-7.78,7.44-8.18,2.14-.16,4.33-.58,6.34-1.3,5.83-2.08,8.13-8.94,3.78-13.28-8.43-8.41-6.01-10.7,1.63-18.24,1.42-1.4,2.97-2.68,4.52-3.93,2.7-2.18,5.41-2.35,8.08.12.61.56,1.3,1.04,1.98,1.52,9,6.43,15.52,3.63,17.13-7.35.98-6.68,2.3-7.94,8.85-8.39,1.66-.11,3.33-.17,4.99-.13,8.04.18,10.5.93,11.7,9.36,1.49,10.52,8.01,12.81,16.71,6.65,6.81-4.82,7.25-4.82,13.41,1.02,2.17,2.06,4.32,4.18,6.25,6.46,1.02,1.2,1.57,2.81,2.59,4.72Z" style="fill:#114d6f;"/><path d="m393.52,167.85s0-.03,0-.04c7.33,0,14.66.05,21.99-.02,3.31-.03,4.54,1.33,3.86,4.62-.81,3.91-1.42,7.87-2.13,11.8-.54,2.97.62,4.45,3.7,4.38,2-.05,4.16.46,5.95-.14,1.72-.58,4-2.02,4.41-3.53,2.11-7.7,3.73-15.53,5.45-23.33.83-3.73-.43-5.93-4.58-5.5-4.23.43-5.09-1.34-4.35-5.32,3.68-19.81,7.12-39.67,10.69-59.51,1.06-5.88.42-6.77-5.6-6.79-13.16-.05-26.33.13-39.49-.1-4.49-.08-6.74,1.51-7.6,5.9-1.89,9.64-3.98,19.24-6.08,28.84-2.53,11.6-5.11,23.27-13.58,32.27-2.08,2.21-5.52,3.11-8.17,4.86-1.35.89-3.12,2.19-3.36,3.54-1.46,8.19-2.53,16.45-3.72,24.68-.38,2.67.66,4.17,3.51,4.13,1.83-.02,3.68-.11,5.5.05,3.6.33,5.09-1.43,5.56-4.8.55-3.96,1.53-7.85,2.08-11.81.47-3.36,2.22-4.33,5.47-4.23,6.82.2,13.66.06,20.49.06Zm-13.54-11.83c2.72-4.82,5.66-8.46,6.95-12.61,4.28-13.78,8.17-27.69,11.76-41.66,1-3.88,2.65-5.29,6.43-5.13,4.15.17,8.32.13,12.47.02,3.22-.09,4.6,1.06,3.99,4.46-3.01,16.86-5.85,33.75-9.03,50.58-.31,1.63-2.45,4.1-3.83,4.16-9.25.37-18.53.19-28.75.19Z" style="fill:#fff;"/><path d="m314.44,123.73s.99-.91,2.04-1.66c8.13-5.82,10.64-13.66,8.54-23.26-2.04-9.32-9.29-12.47-17.32-13.28-10.23-1.02-20.6-.97-30.91-.82-1.63.02-4.11,2.72-4.64,4.62-1.16,4.12-1.16,8.55-1.92,12.8-3.56,20-7.14,39.99-10.91,59.96-.78,4.12.25,6.08,4.58,6,10.82-.2,21.68.13,32.46-.66,16.08-1.17,26.25-12.64,24.52-28.02-.58-5.19-4.05-10.05-6.46-15.68Zm-24.13,6.92c1.67,0,3.33-.08,4.99.01,4.67.26,9.02,1.05,10.77,6.35,1.52,4.61-.38,11.44-4.13,14.58-7.16,5.99-15.69,4.42-23.93,4.15-.54-.02-1.55-2.32-1.4-3.44.65-5.12,1.87-10.16,2.43-15.28.53-4.93,2.73-7.21,7.78-6.46,1.14.17,2.33.03,3.49.03v.06Zm5.39-33.87c1.66,0,3.33-.15,4.97.03,4.04.43,8.03,1.11,9.64,5.67,1.49,4.22.02,10.4-4.27,12.8-3.87,2.16-8.57,3.65-12.98,3.85-12.85.6-10.46.24-8.93-10.16.14-.98.35-1.96.5-2.94q1.49-9.42,11.07-9.25Z" style="fill:#fff;"/><path d="m723.67,166.63c12.01,3.59,16.86,1.82,22.62-7.27,3.2-5.06,6.45-10.09,9.82-15.04,5.22-7.67,8.02-8.56,18.18-5.75-1.09,6.28-2.3,12.61-3.27,18.99-1.59,10.42-1.53,10.26,8.7,10.33,3.96.03,5.79-1.36,6.33-5.21,1.09-7.74,2.28-15.46,3.62-23.16,2.83-16.23,5.82-32.42,8.69-48.65,1-5.65.39-6.32-5.5-6.37-7.49-.06-15.01-.38-22.47.09-5.25.34-10.51,1.53-15.64,2.83-17.56,4.47-22.79,32.36-10.1,42.49,2.59,2.07,2.2,3.98.45,6.37-5.61,7.63-11.12,15.34-16.63,23.06-1.58,2.22-3.01,4.56-4.8,7.31Zm47.77-69.38c12.43-1.39,10.32-.31,8.92,9.36-.69,4.76-1.84,9.47-2.47,14.24-.41,3.06-1.47,4.54-4.81,3.93-1.76-.32-3.65-.19-5.45,0-6.98.76-11.93-1.05-13.93-5.21-2.5-5.22-.79-13.91,3.45-18.07,4.19-4.11,9.38-4.6,14.28-4.26Z" style="fill:#fff;"/><path d="m701.81,84.47v-.03c-5.83,0-11.66,0-17.48,0-9.44-.01-9.55.07-11.27,9.28-.09.49-.13.99-.22,1.48-2.62,13.73-4.97,27.52-7.97,41.17-2.07,9.42-5.95,17.68-17.03,19.89-4.32.86-3.29,5.33-3.52,8.41-.07,1.02,2.03,3,3.34,3.18,10,1.4,19.5-3.48,24.2-12.39,2.01-3.81,4.09-7.75,5.12-11.88,3.27-13.07,6.1-26.25,9-39.41,1.64-7.44,1.55-7.47,8.99-7.49,3.66,0,7.33.11,10.99-.02,3.63-.12,5.18,1.05,4.43,5.01-3.59,19.13-6.91,38.32-10.55,57.45-1.58,8.3-1.06,8.98,7.62,9.08,4.55.05,7.32-1.26,7.75-6.2.33-3.8.93-7.6,1.61-11.36,3.58-19.81,7.23-39.61,10.86-59.42.99-5.39.03-6.66-5.39-6.72-6.83-.08-13.65-.02-20.48-.02Z" style="fill:#fff;"/><path d="m834.5,138.39c2.95,7.32,5.59,13.19,7.68,19.24,3.43,9.93,3.44,10.1,13.92,10.42.33.01.67.03,1,.03,5.6,0,6.36-1.09,4.12-6.06-4.72-10.47-9.62-20.85-14.09-31.42-.8-1.9-.76-5.13.36-6.7,6.79-9.46,14.04-18.59,21.05-27.89,2.44-3.24,4.65-6.65,7.08-10.14-9.25-3.53-16.74-1.73-21.85,4.85-1.52,1.96-2.73,4.16-4.18,6.18-3.71,5.18-7.47,10.32-12.14,16.76-2.75-7.15-5.06-12.63-6.96-18.25-3.56-10.5-4.33-11.16-15.12-10.97-5.62.1-6.38,1.04-4.14,6.16,3.39,7.78,6.38,15.85,10.77,23.04,5.37,8.77,3.39,15.19-3.02,22.35-7.64,8.53-14.23,18-21.27,27.06-1.45,1.86-2.84,3.74.75,4.81,7.45,2.24,15.61-.54,20.07-6.88,1.05-1.5,1.87-3.16,2.93-4.64,4.03-5.62,8.11-11.19,13.04-17.97Z" style="fill:#fff;"/><path d="m574.73,167.79c6.42,1.72,9.49-2.71,11.71-8.46.72-1.86,1.71-3.62,2.37-5.5,1.34-3.79,3.75-5.47,7.92-5.27,5.81.28,11.65.06,17.47.07,7.85.02,7.95.13,8.68,7.96,1.02,11.06,1.9,11.78,12.57,11.51,3.57-.09,4.87-1.59,4.13-4.99-1.2-5.52-2.56-11.01-3.61-16.56-3.47-18.3-6.79-36.64-10.3-54.93-.56-2.94-.54-6.87-4.94-7-4.79-.15-10.22-1.78-13.07,4.33-1.9,4.06-3.85,8.1-5.99,12.04-11.21,20.6-22.5,41.16-33.75,61.74-2.29,4.19-1.65,5.31,3,5.32,1,0,1.99-.13,3.81-.25Zm23.29-31.56c5.62-10.98,10.44-20.36,15.65-30.53.81,1.59,1.43,2.34,1.57,3.16,1.32,7.68,2.67,15.37,3.7,23.09.18,1.32-1.07,4.05-1.77,4.09-5.86.33-11.74.19-19.14.19Z" style="fill:#fff;"/><path d="m471.85,168.12v-.07c7.5,0,15,.12,22.49-.05,4.59-.1,6.47-2.92,6.24-8.82-.17-4.42-3.66-3.02-5.99-3.06-8.83-.14-17.67-.25-26.49.02-4.77.14-5.8-1.76-4.85-6.02.98-4.38,1.85-8.82,2.31-13.28.43-4.15,2.22-5.72,6.44-5.57,7.82.26,15.66.15,23.49.02,3.84-.07,5.66-3.22,5.67-8.82,0-4.28-3.21-3.08-5.39-3.12-7.5-.15-15-.13-22.49-.03-3.33.04-4.52-1.21-3.83-4.55.85-4.08,1.72-8.18,2.03-12.32.33-4.49,2.43-6.19,6.75-5.8,1.98.18,4,.03,6,.03,7.67-.01,15.33.12,22.99-.08,5.89-.15,4.66-5.2,5.15-8.63.57-3.91-2.69-3.48-5.12-3.49-14-.04-28,.11-41.99-.09-4.38-.06-6.55,1.77-7.1,5.87-.45,3.3-.57,6.64-1.16,9.91-3.64,20.15-7.35,40.3-11.1,60.43-1.34,7.18-1.17,7.5,5.96,7.52,6.67.02,13.33,0,20,0Z" style="fill:#fff;"/><path d="m569.54,96.66c2.66,0,5.33.08,7.99-.02,4.62-.18,6.34-2.61,6.25-8.2-.07-4.41-3.18-3.96-5.99-3.97-13.99-.03-27.98-.02-41.97-.01-4.33,0-8.68-.2-12.99.09-5.6.37-4.8,5.23-5.29,8.73-.55,4.01,2.86,3.28,5.2,3.35,4.33.12,8.67.23,12.99,0,4.47-.23,6.45.86,5.34,5.95-1.95,8.94-3.3,18.01-4.95,27.01-1.95,10.63-3.95,21.26-5.95,31.89-1.02,5.44-.05,6.63,5.44,6.57,9.7-.11,9.89-.29,10.65-9.93.12-1.49.42-2.96.68-4.43,2.58-14.76,5.3-29.5,7.73-44.29,2.51-15.26.84-12.38,14.86-12.75Z" style="fill:#fff;"/><path d="m164.14,288.49c.87-1.25,1.12-1.93,1.61-2.27,6.86-4.72,9.19-11.12,7.1-19.13-2.21-8.46-8.37-12.32-16.47-12.9-9.45-.68-18.95-.58-28.43-.84-2.7-.07-3.97,1.14-3.97,3.87.02,21.49-.04,42.98.15,64.47.01,1.2,1.94,3.42,2.99,3.43,10.32.13,20.69.49,30.94-.41,8.89-.79,15.07-7.01,16.54-14.48,1.95-9.9-.23-15.2-8.62-20.83-.56-.37-1.21-.6-1.86-.91Zm-28.4,15.97c.11-12.95-1.21-11.25,11.54-11.34,1.66-.01,3.32-.05,4.98.02,7.25.3,11.1,4.08,11.35,11.08.25,6.94-3.87,11.61-11.04,12.13-3.8.28-7.64-.06-11.44.2-4.24.29-5.69-1.66-5.41-5.61.15-2.15.03-4.31.03-6.47Zm.08-31.34c-.03-11.5-1.19-10.77,10.7-10.75,2.16,0,4.34.04,6.46.37,5.96.94,8.65,3.93,8.86,9.57.21,5.61-2.71,9.96-8.25,10.79-4.72.71-9.62.61-14.4.34-1.18-.07-2.89-2.02-3.22-3.39-.54-2.19-.15-4.62-.15-6.95Z" style="fill:#fff;"/><path d="m804.87,303.74c-.41-.1-.83-.21-1.24-.31-.2-1.86-.56-3.71-.56-5.57-.05-13.32-.1-26.64.02-39.96.04-3.99-2.02-4.69-5.35-4.59-3.15.09-6.01-.13-5.99,4.46.1,20.98,0,41.96.12,62.93,0,1.44.67,3.53,1.72,4.19,3.47,2.16,10.22,0,12.49-3.66,8.51-13.72,16.98-27.46,25.5-41.17,1.07-1.72,2.35-3.31,3.54-4.95.41.12.82.25,1.24.37.15,1.89.43,3.78.44,5.67.04,12.99.11,25.97-.03,38.96-.04,3.8,1.17,5.23,5.14,5.35,4.78.14,6.69-1.44,6.29-6.28-.31-3.8-.05-7.65-.05-11.48,0-16.15-.13-32.3.07-48.45.06-4.62-1.6-6.06-6.1-6.04-4.17.02-6.67,1.45-8.81,5.03-8.12,13.57-16.52,26.96-24.85,40.41-1.09,1.76-2.38,3.4-3.57,5.09Z" style="fill:#fff;"/><path d="m306.29,291.08c-.54-5.33-.75-9.65-1.44-13.9-2.33-14.28-12.39-23.66-26.89-25.28-12.2-1.36-23.58,5.85-28.71,18.75-4.52,11.38-4.36,23.21-1.05,34.77,3.94,13.74,14.21,21.22,27.91,21.4,12.95.18,23.47-7.54,27.66-21.01,1.55-5.01,1.82-10.42,2.52-14.73Zm-11.45-3.67c-.86,6.77-1,11.83-2.22,16.61-2.23,8.8-7.44,13.11-15.17,13.54-8.64.48-14.59-2.92-17.32-11.99-3.57-11.84-3.78-23.98,1.38-35.65,2.64-5.97,7.76-8.79,13.96-8.9,6.76-.12,12.82,2.5,15.26,9.2,2.18,5.99,3.03,12.45,4.12,17.18Z" style="fill:#fff;"/><path d="m507.09,289.88c0-10.49-.05-20.99.02-31.48.02-3.1-.7-5.1-4.4-5.08-15.82.08-31.65.06-47.47,0-3.1-.01-4.56,1.19-4.55,4.42.05,21.15-.01,42.31.09,63.46,0,1.26.77,3.13,1.75,3.68,4.95,2.72,9.51-.14,9.51-5.77,0-16.99.08-33.98-.08-50.97-.04-4.3,1.49-5.99,5.84-5.84,6.99.24,13.99.04,20.99.06,6.69.02,6.89.22,6.9,7.14.01,16.82.08,33.65-.08,50.47-.04,4.15,1.52,5.48,5.59,5.49,4.14,0,6.1-1.02,5.98-5.6-.25-9.99-.08-19.99-.08-29.98Z" style="fill:#fff;"/><path d="m654.42,325.32c-.5-2.17-.62-3.32-1.02-4.37-8-21-16.11-41.96-23.96-63.02-1.47-3.93-3.86-4.64-7.59-4.71-3.93-.07-5.54,1.76-6.79,5.11-6.57,17.63-13.31,35.2-19.96,52.79-1.68,4.43-3.26,8.9-4.92,13.44,10.38,2.11,11.33,1.57,14.36-7.44.53-1.58,1.26-3.1,1.68-4.7.8-3.08,2.7-4.24,5.84-4.17,6.66.13,13.33.2,19.98-.04,3.88-.14,5.79,1.49,6.73,5.1.79,3.05,1.77,6.12,3.18,8.92.67,1.34,2.42,2.69,3.89,2.96,2.53.48,5.22.13,8.6.13Zm-31.11-55.53c3.06,8.71,6.19,17.4,9.02,26.18.23.7-1.61,2.94-2.58,3-4.96.31-9.97.27-14.93,0-.92-.05-2.68-2.03-2.49-2.62,2.82-8.93,5.9-17.78,8.93-26.65.69.03,1.38.06,2.06.09Z" style="fill:#fff;"/><path d="m49.63,324.34c9.83,2.43,11.05,1.83,13.89-6.06.73-2.03,1.66-4.01,2.24-6.08.8-2.86,2.51-4.03,5.46-3.95,4.82.13,9.65.03,14.47.04,12.91.02,10.13-.93,14.12,10,2.81,7.72,5.37,8.86,13.77,5.83-.68-2.15-1.27-4.36-2.07-6.49-7.41-19.6-14.93-39.15-22.23-58.79-1.39-3.73-3.13-5.6-7.46-5.67-4.37-.07-6.15,1.81-7.52,5.53-5.29,14.36-10.82,28.63-16.22,42.94-2.8,7.42-5.53,14.86-8.44,22.69Zm32.91-54.53c1.29,3.44,2.61,6.88,3.86,10.35,1.74,4.83,3.39,9.69,5.16,14.51,1.03,2.82.57,4.53-2.84,4.52-4.64-.02-9.29.2-13.91-.14-1.14-.08-3.27-2.28-3.07-2.89,2.84-8.63,5.99-17.15,9.11-25.69.07-.2.57-.24,1.69-.67Z" style="fill:#fff;"/><path d="m439.7,324.15c-.51-1.82-.91-3.74-1.6-5.55-7.63-20.06-15.39-40.07-22.88-60.18-1.37-3.68-3.18-5.25-7.21-5.22-3.95.03-5.99,1.45-7.36,5.14-7.81,21.06-15.83,42.05-23.73,63.07-.37.99-.35,2.14-.51,3.19,9.66,2.09,10.63,1.58,13.48-6.79.64-1.89,1.44-3.74,1.96-5.66.78-2.89,2.59-3.97,5.51-3.89,4.66.12,9.32,0,13.98.04,13.45.11,10.67-1.38,14.8,10.39,2.56,7.28,5.19,8.45,13.54,5.47Zm-30.74-54.21c3.08,8.73,6.23,17.45,9.11,26.24.21.65-1.43,2.74-2.28,2.78-5.31.26-10.65.24-15.96.01-.77-.03-2.28-1.92-2.09-2.5,2.91-8.91,6.05-17.75,9.14-26.61.69.02,1.39.04,2.08.07Z" style="fill:#fff;"/><path d="m356.84,287.43c1.93-1.33,2.83-2.03,3.8-2.61,11.43-6.86,9.27-25.24-4.4-30.36-9.32-3.49-18.57-3.69-27.67.39-5.19,2.33-9.09,6.18-10.64,11.87-.31,1.13-.29,2.84.36,3.66,1.52,1.92,9.36.6,10.8-1.59,4.85-7.34,11.83-9.59,20.19-6.52,4.88,1.8,7.42,5.63,7.16,10.79-.24,4.58-3.36,8.39-8.2,9.43-2.74.58-5.61.74-8.42.72-3.14-.02-4.98.7-5.06,4.4-.08,3.97,1.84,4.8,5.23,4.67,2.64-.09,5.35-.03,7.95.44,5.94,1.08,9.26,5.09,9.59,11.08.32,6.01-3.17,10.71-9.33,12.54-8.04,2.39-16.52.09-19.18-6.31-2.14-5.16-5.72-4.62-9.68-4.46-2.68.1-3.95,1.85-2.74,3.96,2.33,4.07,4.48,8.96,8.11,11.45,10.63,7.31,22.34,6.8,33.67,1.4,8.21-3.91,11.52-11.13,10.56-20.2-.72-6.84-4.94-11-12.1-14.75Z" style="fill:#fff;"/><path d="m660.98,289.09c0,2.66-.17,5.34.03,7.99,1.66,22.29,18.89,34.56,39.65,28.12,8.56-2.65,14.3-8.32,16.32-17.25.29-1.27.22-3.29-.56-4-2.57-2.34-9.55-.18-10.84,3.09-3.31,8.37-7.1,10.81-16.41,10.55-7.49-.21-12.01-3.63-14.56-11.38-3.15-9.58-2.76-19.42-1.18-29.15,1.01-6.17,3.4-11.97,9.94-14.59,8.34-3.34,20.36-1.12,22.45,9.72.62,3.21,5.65,4.66,9.66,3.21,3.9-1.41,1.53-4.33.92-6.28-3.4-10.88-11.65-15.87-22.4-16.97-10.81-1.11-20.15,2.13-26.64,11.29-5.42,7.65-6.92,16.46-6.39,25.67Z" style="fill:#fff;"/><path d="m578.59,289.47c0-9.98-.14-19.97.06-29.95.09-4.29-.99-6.36-5.82-6.32-4.57.04-6.17,1.53-5.99,6.1.3,7.64-.03,15.31.13,22.96.08,3.72-1.47,5.67-5.1,5.95-4.8.37-9.62,1.05-14.41.88-8.89-.31-12.25-3.82-12.57-12.68-.23-6.32-.2-12.65-.08-18.97.08-4.4-2.86-4.16-5.75-4.09-2.74.06-6.02-.69-5.97,3.84.09,7.15-.26,14.33.23,21.46.74,10.73,7.26,17.64,18.01,18.61,6.88.62,13.9.19,20.83-.27,3.6-.24,4.86.81,4.79,4.29-.11,6.16.21,12.33-.1,18.47-.22,4.45,1.46,5.79,5.77,5.72,4.05-.06,6.16-.89,6.05-5.53-.26-10.14-.08-20.3-.08-30.45Z" style="fill:#fff;"/><path d="m746.79,293.88h.02c0,8.65.14,17.3-.06,25.95-.09,3.98,1.13,5.59,5.36,5.65,4.54.07,6.13-1.41,6.07-6-.2-16.3-.07-32.6-.07-48.9q0-8.19,8.39-8.21c3.49,0,6.99-.07,10.48,0,3.13.06,3.94-1.69,3.94-4.44,0-2.66-.53-4.57-3.77-4.56-16.47.04-32.94.04-49.4,0-3.25,0-3.74,1.94-3.76,4.58-.03,2.75.71,4.5,3.89,4.44,4.49-.09,8.99.14,13.47-.07,4.16-.2,5.58,1.62,5.5,5.63-.17,8.65-.05,17.3-.05,25.95Z" style="fill:#fff;"/><path d="m204.77,293.83c.01,8.82-.1,17.64.12,26.46.04,1.65,1.04,4.23,2.26,4.72,5.64,2.28,8.87-.08,8.88-6.04.03-16.64,0-33.29.04-49.93.01-6.45.24-6.63,6.84-6.67,3.83-.02,7.66-.09,11.48.02,3.03.09,4.64-.89,4.65-4.25.01-3.32-1.1-4.85-4.62-4.83-15.98.1-31.95.08-47.93,0-3.19-.01-4.43,1.24-4.47,4.44-.05,3.48,1.35,4.77,4.75,4.63,4.15-.17,8.33.14,12.48-.07,4.1-.21,5.67,1.46,5.58,5.55-.18,8.65-.05,17.31-.05,25.96Z" style="fill:#fff;"/><path d="m153.41,80.64c-1.02-1.92-1.57-3.52-2.59-4.72-1.94-2.28-4.08-4.4-6.25-6.46-6.16-5.84-6.6-5.85-13.41-1.02-8.69,6.16-15.21,3.87-16.71-6.65-1.2-8.42-3.66-9.17-11.7-9.36-1.66-.04-3.33.02-4.99.13-6.56.44-7.87,1.71-8.85,8.39-1.61,10.98-8.13,13.78-17.13,7.35-.68-.48-1.37-.96-1.98-1.52-2.67-2.47-5.38-2.31-8.08-.12-1.55,1.25-3.1,2.53-4.52,3.93-7.64,7.54-10.07,9.83-1.63,18.24,4.35,4.34,2.05,11.19-3.78,13.28-2.02.72-4.2,1.14-6.34,1.3-5.15.39-7.38,3.25-7.44,8.18-.02,1.83-.09,3.67-.08,5.5.03,9.91.44,10.4,10.21,12.2,8.92,1.64,11.43,7.04,6.86,14.77q-5.8,9.79,2.7,17.62c.37.34.74.67,1.11,1.01q6.58,5.91,13.54.62c7.39-5.62,15.1-3.1,16.05,5.98,1.21,11.66,4.6,9.82,13.02,10.69,1.47.15,2.98-.28,4.48-.3,5.07-.04,7.5-2.5,7.92-7.61.37-4.51,1.22-9.19,6.21-11.12,4.87-1.88,8.65.92,12.36,3.54.54.38,1,.88,1.51,1.3,2.4,1.99,4.77,2.12,7.14-.09,3.29-3.06,7.05-5.75,9.72-9.27,1.33-1.76,1.06-5.06.76-7.58-.17-1.43-1.87-2.67-2.83-4.03-5.58-7.92-2.81-14.24,6.79-15.52,9.01-1.2,9.22-1.4,9.92-10.4.13-1.65.13-3.33,0-4.99-.69-9.02-.84-9.15-9.73-10.7-4.24-.74-8.23-1.95-9.71-6.66-1.42-4.49,1.21-7.55,3.85-10.66,1.34-1.58,2.37-3.42,3.61-5.24Zm-88.13,81.15c-2.59-2.59-5.51-4.85-7.44-7.77-.76-1.15.26-4.06,1.26-5.67,7.75-12.38,4.02-21.78-10.27-24.55-4.43-.86-5.21-3.14-5.13-6.91.08-3.82-.17-7.6,5.13-7.97.33-.02.65-.13.98-.21,12.82-3.19,16.6-12.55,9.64-23.88-2.81-4.57.06-11.71,5.4-12.76,1.34-.26,3.13.72,4.44,1.55,12.3,7.88,21.87,3.97,24.89-10.47.84-4.03,3.07-5.08,6.69-4.97,3.57.11,7.26-.24,7.86,4.75.12.98.45,1.95.71,2.91,3.1,11.25,12.72,15.35,22.33,8.75,4.82-3.31,7.66-2.79,11.35,1.2,2.71,2.94,3.15,5.04.95,8.62-7.7,12.54-3.88,21.63,10.58,24.47,5.69,1.12,4.99,4.55,5.18,8.37.19,4.03-1.23,5.86-5.5,6.54-13.97,2.23-18.14,11.91-10.66,23.96,2.86,4.61,0,11.9-5.4,13.07-1.32.29-3.14-.67-4.45-1.5-12.46-7.98-20.44-5.12-24.44,9.36-1.35,4.89-4.23,5.57-8.43,5.66-4.34.1-5.93-1.76-6.94-5.9-2.59-10.64-10.07-15.71-18.27-12.81-2.29.81-4.25,2.53-6.38,3.82-1.11.67-2.24,1.3-4.1,2.37Z" style="fill:#fff;"/><path d="m135.75,304.46c-.01,2.16.11,4.32-.04,6.47-.27,3.95,1.18,5.9,5.41,5.61,3.8-.26,7.64.08,11.44-.2,7.17-.52,11.29-5.18,11.04-12.13-.25-7-4.1-10.78-11.35-11.08-1.66-.07-3.32-.03-4.98-.02-12.74.1-11.43-1.61-11.52,11.34Z" style="fill:#114d6f;"/><path d="m135.81,273.13c0,2.33-.4,4.75.15,6.95.34,1.36,2.04,3.32,3.22,3.39,4.79.27,9.68.37,14.4-.34,5.54-.84,8.46-5.19,8.25-10.79-.21-5.64-2.9-8.64-8.86-9.57-2.12-.33-4.3-.37-6.46-.37-11.89-.02-10.73-.75-10.7,10.75Z" style="fill:#114d6f;"/><path d="m294.84,287.4c-1.09-4.73-1.94-11.2-4.12-17.18-2.44-6.7-8.5-9.32-15.26-9.2-6.19.11-11.32,2.93-13.96,8.9-5.15,11.67-4.95,23.81-1.38,35.65,2.74,9.07,8.69,12.47,17.32,11.99,7.73-.43,12.94-4.74,15.17-13.54,1.21-4.79,1.36-9.85,2.22-16.61Z" style="fill:#114d6f;"/><path d="m623.31,269.79c-.69-.03-1.38-.06-2.06-.09-3.02,8.87-6.1,17.72-8.93,26.65-.19.6,1.57,2.57,2.49,2.62,4.97.27,9.97.31,14.93,0,.97-.06,2.81-2.3,2.58-3-2.83-8.78-5.96-17.47-9.02-26.18Z" style="fill:#114d6f;"/><path d="m82.54,269.81c-1.12.43-1.62.47-1.69.67-3.11,8.54-6.27,17.06-9.11,25.69-.2.61,1.92,2.8,3.07,2.89,4.61.34,9.27.12,13.91.14,3.41.01,3.87-1.7,2.84-4.52-1.76-4.82-3.41-9.68-5.16-14.51-1.25-3.47-2.57-6.91-3.86-10.35Z" style="fill:#114d6f;"/><path d="m408.97,269.94c-.69-.02-1.39-.04-2.08-.07-3.09,8.86-6.22,17.69-9.14,26.61-.19.58,1.32,2.47,2.09,2.5,5.32.22,10.65.25,15.96-.01.85-.04,2.5-2.13,2.28-2.78-2.88-8.8-6.03-17.51-9.11-26.24Z" style="fill:#114d6f;"/><path d="m65.27,161.79c1.86-1.07,3-1.7,4.1-2.37,2.13-1.28,4.09-3.01,6.38-3.82,8.2-2.9,15.68,2.16,18.27,12.81,1.01,4.14,2.6,6,6.94,5.9,4.2-.1,7.08-.77,8.43-5.66,4-14.48,11.98-17.34,24.44-9.36,1.3.83,3.12,1.79,4.45,1.5,5.39-1.17,8.26-8.46,5.4-13.07-7.48-12.05-3.32-21.73,10.66-23.96,4.26-.68,5.69-2.51,5.5-6.54-.18-3.82.52-7.25-5.18-8.37-14.46-2.84-18.28-11.93-10.58-24.47,2.2-3.57,1.76-5.68-.95-8.62-3.69-3.99-6.53-4.51-11.35-1.2-9.61,6.6-19.24,2.5-22.33-8.75-.27-.96-.59-1.93-.71-2.91-.6-4.98-4.3-4.64-7.86-4.75-3.62-.11-5.85.94-6.69,4.97-3.02,14.44-12.59,18.34-24.89,10.47-1.31-.84-3.1-1.82-4.44-1.55-5.34,1.06-8.21,8.19-5.4,12.76,6.96,11.33,3.18,20.69-9.64,23.88-.32.08-.65.18-.98.21-5.29.37-5.05,4.16-5.13,7.97-.08,3.77.7,6.06,5.13,6.91,14.3,2.77,18.02,12.17,10.27,24.55-1.01,1.61-2.02,4.53-1.26,5.67,1.92,2.92,4.85,5.18,7.44,7.77Zm13.57-45.71c.12-12.8,10.2-22.51,23.2-22.36,12.38.14,22.45,10.31,22.49,22.71.04,11.83-11.34,22.78-23.45,22.57-12.31-.21-22.35-10.57-22.24-22.92Z" style="fill:#114d6f;"/><path d="m78.84,116.08c-.12,12.35,9.93,22.7,22.24,22.92,12.11.21,23.49-10.74,23.45-22.57-.04-12.4-10.11-22.57-22.49-22.71-13-.15-23.08,9.57-23.2,22.36Zm22.45,18.53c-10.03,0-18.4-8.47-18.35-18.59.05-9.97,8.69-18.48,18.65-18.35,10.28.12,18.55,8.34,18.55,18.42,0,10.42-8.24,18.52-18.85,18.53Z" style="fill:#fff;"/><path d="m101.3,134.62c10.6,0,18.84-8.1,18.85-18.53,0-10.07-8.27-18.29-18.55-18.42-9.96-.12-18.6,8.38-18.65,18.35-.05,10.12,8.32,18.6,18.35,18.59Z" style="fill:#114d6f;"/></svg>